<mxfile host="65bd71144e" modified="2020-12-15T05:36:06.780Z" agent="5.0 (Windows NT 10.0; Win64; x64) AppleWebKit/537.36 (KHTML, like Gecko) Code/1.51.1 Chrome/83.0.4103.122 Electron/9.3.3 Safari/537.36" etag="aEtPl5irFXMQ_kn8qTbv" version="13.10.0" type="embed">
    <diagram id="_kUtOmtmM_ubYh3y62Ta" name="第 1 页">
        <mxGraphModel dx="884" dy="615" grid="1" gridSize="10" guides="1" tooltips="1" connect="1" arrows="1" fold="1" page="1" pageScale="1" pageWidth="827" pageHeight="1169" background="#ffffff" math="0" shadow="0">
            <root>
                <mxCell id="0"/>
                <mxCell id="1" parent="0"/>
                <object label="" placeholders="1" id="48">
                    <mxCell style="group;strokeColor=#6c8ebf;dashed=1;strokeWidth=2;fillColor=#dae8fc;align=left;horizontal=0;container=0;" vertex="1" connectable="0" parent="1">
                        <mxGeometry x="200" y="10" width="590" height="390" as="geometry"/>
                    </mxCell>
                </object>
                <object label="" placeholders="1" id="46">
                    <mxCell style="group;strokeColor=#d6b656;dashed=1;strokeWidth=2;fillColor=#fff2cc;align=left;horizontal=0;container=0;" vertex="1" connectable="0" parent="1">
                        <mxGeometry x="200" y="400" width="440" height="170" as="geometry"/>
                    </mxCell>
                </object>
                <object label="" placeholders="1" id="42">
                    <mxCell style="group;strokeColor=#82b366;dashed=1;strokeWidth=2;fillColor=#d5e8d4;align=left;horizontal=0;container=0;" vertex="1" connectable="0" parent="1">
                        <mxGeometry x="200" y="570" width="440" height="180" as="geometry"/>
                    </mxCell>
                </object>
                <mxCell id="8" style="edgeStyle=orthogonalEdgeStyle;rounded=0;orthogonalLoop=1;jettySize=auto;html=1;exitX=0.5;exitY=1;exitDx=0;exitDy=0;strokeColor=#000000;fontColor=#000000;" parent="1" source="3" target="7" edge="1">
                    <mxGeometry relative="1" as="geometry"/>
                </mxCell>
                <mxCell id="3" value="constructor" style="rounded=1;whiteSpace=wrap;html=1;fillColor=none;strokeColor=#121212;fontColor=#000000;" parent="1" vertex="1">
                    <mxGeometry x="320" y="130" width="120" height="40" as="geometry"/>
                </mxCell>
                <mxCell id="5" value="" style="edgeStyle=orthogonalEdgeStyle;rounded=0;orthogonalLoop=1;jettySize=auto;html=1;fontColor=#000000;strokeColor=#000000;" parent="1" source="4" target="3" edge="1">
                    <mxGeometry relative="1" as="geometry"/>
                </mxCell>
                <mxCell id="4" value="挂载之前" style="ellipse;whiteSpace=wrap;html=1;aspect=fixed;strokeColor=#121212;fillColor=none;fontColor=#000000;" parent="1" vertex="1">
                    <mxGeometry x="340" y="10" width="80" height="80" as="geometry"/>
                </mxCell>
                <mxCell id="11" value="" style="edgeStyle=orthogonalEdgeStyle;rounded=0;orthogonalLoop=1;jettySize=auto;html=1;exitX=0.5;exitY=1;exitDx=0;exitDy=0;fontColor=#000000;labelBackgroundColor=#FFFFFF;gradientColor=#ffa500;fillColor=#ffcd28;strokeWidth=2;strokeColor=#3399FF;" parent="1" source="7" target="9" edge="1">
                    <mxGeometry relative="1" as="geometry"/>
                </mxCell>
                <mxCell id="12" value="更新时" style="edgeStyle=orthogonalEdgeStyle;rounded=0;orthogonalLoop=1;jettySize=auto;html=1;exitX=1;exitY=0.5;exitDx=0;exitDy=0;strokeColor=#996185;fontColor=#000000;labelBackgroundColor=#ffffff;gradientColor=#d5739d;fillColor=#e6d0de;" parent="1" source="7" target="19" edge="1">
                    <mxGeometry relative="1" as="geometry"/>
                </mxCell>
                <mxCell id="7" value="getDerivedStateFormProps" style="rounded=1;whiteSpace=wrap;html=1;strokeColor=#121212;fillColor=none;fontColor=#000000;" parent="1" vertex="1">
                    <mxGeometry x="305" y="210" width="150" height="40" as="geometry"/>
                </mxCell>
                <mxCell id="23" style="edgeStyle=orthogonalEdgeStyle;rounded=0;orthogonalLoop=1;jettySize=auto;html=1;exitX=0.75;exitY=1;exitDx=0;exitDy=0;labelBackgroundColor=#ffffff;strokeWidth=2;fontColor=#000000;entryX=0.5;entryY=0;entryDx=0;entryDy=0;strokeColor=#d79b00;gradientColor=#ffa500;fillColor=#ffcd28;" parent="1" source="9" target="24" edge="1">
                    <mxGeometry relative="1" as="geometry">
                        <mxPoint x="500" y="430" as="targetPoint"/>
                    </mxGeometry>
                </mxCell>
                <mxCell id="26" style="edgeStyle=orthogonalEdgeStyle;rounded=0;orthogonalLoop=1;jettySize=auto;html=1;exitX=0.5;exitY=1;exitDx=0;exitDy=0;entryX=0.5;entryY=0;entryDx=0;entryDy=0;labelBackgroundColor=#ffffff;strokeWidth=2;fontColor=#000000;strokeColor=#4C0099;" parent="1" source="9" target="25" edge="1">
                    <mxGeometry relative="1" as="geometry"/>
                </mxCell>
                <mxCell id="9" value="render" style="rounded=1;whiteSpace=wrap;html=1;strokeColor=#121212;fillColor=none;fontColor=#000000;" parent="1" vertex="1">
                    <mxGeometry x="320" y="360" width="120" height="30" as="geometry"/>
                </mxCell>
                <mxCell id="14" value="true" style="edgeStyle=orthogonalEdgeStyle;rounded=0;orthogonalLoop=1;jettySize=auto;html=1;exitX=0.5;exitY=1;exitDx=0;exitDy=0;entryX=1;entryY=0.5;entryDx=0;entryDy=0;labelBackgroundColor=#ffffff;fontColor=#000000;fillColor=#d5e8d4;gradientColor=#97d077;strokeColor=#00CC00;strokeWidth=3;" parent="1" source="19" target="9" edge="1">
                    <mxGeometry relative="1" as="geometry">
                        <mxPoint x="565" y="340" as="sourcePoint"/>
                    </mxGeometry>
                </mxCell>
                <mxCell id="15" value="false" style="edgeStyle=orthogonalEdgeStyle;rounded=0;orthogonalLoop=1;jettySize=auto;html=1;exitX=1;exitY=0.5;exitDx=0;exitDy=0;labelBackgroundColor=#ffffff;strokeColor=#B20000;fontColor=#000000;fillColor=#e51400;strokeWidth=3;" parent="1" source="19" target="17" edge="1">
                    <mxGeometry relative="1" as="geometry">
                        <mxPoint x="750" y="330" as="targetPoint"/>
                        <mxPoint x="590" y="315" as="sourcePoint"/>
                    </mxGeometry>
                </mxCell>
                <mxCell id="17" value="" style="shape=cross;whiteSpace=wrap;html=1;strokeColor=#121212;fontColor=#000000;rotation=45;labelBorderColor=#CC0000;fillColor=#CC0000;" parent="1" vertex="1">
                    <mxGeometry x="730" y="339.39" width="50" height="50.61" as="geometry"/>
                </mxCell>
                <mxCell id="19" value="&#10;&#10;&lt;span style=&quot;color: rgb(0, 0, 0); font-family: helvetica; font-size: 12px; font-style: normal; font-weight: 400; letter-spacing: normal; text-align: center; text-indent: 0px; text-transform: none; word-spacing: 0px; display: inline; float: none;&quot;&gt;shouldComponentUpdate(newProps, newState)&lt;/span&gt;&#10;&#10;" style="rounded=0;whiteSpace=wrap;html=1;strokeColor=#121212;fontColor=#000000;fillColor=none;labelBackgroundColor=none;" parent="1" vertex="1">
                    <mxGeometry x="500" y="280" width="220" height="40" as="geometry"/>
                </mxCell>
                <mxCell id="27" style="edgeStyle=orthogonalEdgeStyle;rounded=0;orthogonalLoop=1;jettySize=auto;html=1;exitX=0.5;exitY=1;exitDx=0;exitDy=0;entryX=1;entryY=0.5;entryDx=0;entryDy=0;strokeColor=#d79b00;fillColor=#ffcd28;strokeWidth=2;gradientColor=#ffa500;" edge="1" parent="1" source="24" target="25">
                    <mxGeometry relative="1" as="geometry"/>
                </mxCell>
                <mxCell id="24" value="getSnapshotBeforeUpdate()" style="rounded=1;whiteSpace=wrap;html=1;labelBackgroundColor=none;strokeColor=#121212;fillColor=none;fontColor=#000000;" parent="1" vertex="1">
                    <mxGeometry x="460" y="430" width="170" height="30" as="geometry"/>
                </mxCell>
                <mxCell id="29" style="edgeStyle=orthogonalEdgeStyle;rounded=0;orthogonalLoop=1;jettySize=auto;html=1;exitX=0;exitY=1;exitDx=0;exitDy=0;strokeColor=#3700CC;strokeWidth=2;fillColor=#6a00ff;entryX=0.5;entryY=0;entryDx=0;entryDy=0;" edge="1" parent="1" source="25" target="31">
                    <mxGeometry relative="1" as="geometry">
                        <mxPoint x="310" y="610" as="targetPoint"/>
                    </mxGeometry>
                </mxCell>
                <mxCell id="30" style="edgeStyle=orthogonalEdgeStyle;rounded=0;orthogonalLoop=1;jettySize=auto;html=1;exitX=1;exitY=1;exitDx=0;exitDy=0;strokeColor=#996185;strokeWidth=2;gradientColor=#d5739d;fillColor=#e6d0de;entryX=0.5;entryY=0;entryDx=0;entryDy=0;" edge="1" parent="1" source="25" target="32">
                    <mxGeometry relative="1" as="geometry">
                        <mxPoint x="450" y="610" as="targetPoint"/>
                    </mxGeometry>
                </mxCell>
                <mxCell id="25" value="更新Dom和refs" style="ellipse;whiteSpace=wrap;html=1;aspect=fixed;labelBackgroundColor=none;strokeColor=#121212;fillColor=none;fontColor=#000000;" parent="1" vertex="1">
                    <mxGeometry x="332.5" y="470" width="95" height="95" as="geometry"/>
                </mxCell>
                <mxCell id="44" value="&lt;h1&gt;Commit阶段&lt;/h1&gt;&lt;p&gt;&lt;span style=&quot;color: rgb(40 , 44 , 52) ; font-family: , &amp;#34;blinkmacsystemfont&amp;#34; , &amp;#34;segoe ui&amp;#34; , &amp;#34;roboto&amp;#34; , &amp;#34;oxygen&amp;#34; , &amp;#34;ubuntu&amp;#34; , &amp;#34;cantarell&amp;#34; , &amp;#34;fira sans&amp;#34; , &amp;#34;droid sans&amp;#34; , &amp;#34;helvetica neue&amp;#34; , sans-serif ; font-size: 14px ; text-align: center ; background-color: rgb(255 , 255 , 255)&quot;&gt;可以使用 DOM，运行副作用，安排更新。&lt;/span&gt;&lt;br&gt;&lt;/p&gt;" style="text;html=1;strokeColor=none;fillColor=none;spacing=5;spacingTop=-20;whiteSpace=wrap;overflow=hidden;rounded=0;dashed=1;fontColor=#000000;align=left;" vertex="1" parent="1">
                    <mxGeometry x="10" y="585" width="170" height="90" as="geometry"/>
                </mxCell>
                <mxCell id="37" value="" style="group" vertex="1" connectable="0" parent="1">
                    <mxGeometry x="200" y="580" width="370" height="21.81818181818182" as="geometry"/>
                </mxCell>
                <mxCell id="31" value="componentDidMount" style="rounded=1;whiteSpace=wrap;html=1;fillColor=none;strokeColor=#000000;fontColor=#000000;" vertex="1" parent="37">
                    <mxGeometry width="123.33333333333336" height="21.81818181818182" as="geometry"/>
                </mxCell>
                <mxCell id="32" value="componentDidUpdate" style="rounded=1;whiteSpace=wrap;html=1;fillColor=none;strokeColor=#000000;fontColor=#000000;" vertex="1" parent="37">
                    <mxGeometry x="246.6666666666667" width="123.33333333333336" height="21.81818181818182" as="geometry"/>
                </mxCell>
                <mxCell id="38" value="componentWillUnmount" style="rounded=1;whiteSpace=wrap;html=1;strokeColor=#000000;fillColor=none;fontColor=#000000;" vertex="1" parent="1">
                    <mxGeometry x="297.6388888888889" y="718.1818181818182" width="169.58333333333331" height="21.81818181818182" as="geometry"/>
                </mxCell>
                <mxCell id="39" style="edgeStyle=orthogonalEdgeStyle;rounded=0;orthogonalLoop=1;jettySize=auto;html=1;strokeColor=#CCCC00;strokeWidth=2;fontColor=#000000;exitX=0.5;exitY=1;exitDx=0;exitDy=0;" edge="1" parent="1" source="31" target="38">
                    <mxGeometry x="200" y="580" as="geometry">
                        <mxPoint x="385" y="601.8181818181819" as="sourcePoint"/>
                    </mxGeometry>
                </mxCell>
                <mxCell id="40" style="edgeStyle=orthogonalEdgeStyle;rounded=0;orthogonalLoop=1;jettySize=auto;html=1;exitX=0.5;exitY=1;exitDx=0;exitDy=0;entryX=0.5;entryY=0;entryDx=0;entryDy=0;strokeColor=#CCCC00;strokeWidth=2;fontColor=#000000;" edge="1" parent="1" source="32" target="38">
                    <mxGeometry x="200" y="580" as="geometry"/>
                </mxCell>
                <mxCell id="47" value="&lt;h1&gt;PreCommit阶段&lt;/h1&gt;&lt;p style=&quot;text-align: center&quot;&gt;&lt;font color=&quot;#282c34&quot;&gt;&lt;span style=&quot;font-size: 14px ; background-color: rgb(255 , 255 , 255)&quot;&gt;可以读取Dom&lt;/span&gt;&lt;/font&gt;&lt;/p&gt;" style="text;html=1;strokeColor=none;fillColor=none;spacing=5;spacingTop=-20;whiteSpace=wrap;overflow=hidden;rounded=0;dashed=1;fontColor=#000000;align=left;" vertex="1" parent="1">
                    <mxGeometry y="440" width="190" height="100" as="geometry"/>
                </mxCell>
                <mxCell id="49" value="&lt;h1&gt;Render阶段&lt;/h1&gt;&lt;p style=&quot;text-align: center&quot;&gt;&lt;font color=&quot;#282c34&quot;&gt;&lt;span style=&quot;font-size: 14px ; background-color: rgb(255 , 255 , 255)&quot;&gt;纯净且不包含副作用&lt;/span&gt;&lt;/font&gt;&lt;/p&gt;" style="text;html=1;strokeColor=none;fillColor=none;spacing=5;spacingTop=-20;whiteSpace=wrap;overflow=hidden;rounded=0;dashed=1;fontColor=#000000;align=left;" vertex="1" parent="1">
                    <mxGeometry x="20" y="140" width="150" height="100" as="geometry"/>
                </mxCell>
            </root>
        </mxGraphModel>
    </diagram>
</mxfile>